# Blender v2.91.0 OBJ File: 'Tree.blend'
# www.blender.org
mtllib bush.mtl
o bush_Cone.001
v -0.105735 0.258919 -0.195184
v 0.190802 0.258919 0.019466
v -0.120592 0.258919 0.193159
v -0.018084 0.442758 0.035311
v 0.139762 0.113722 -0.276587
v 0.161281 0.113722 0.249424
v -0.312095 0.113722 0.052321
v -0.013988 0.378103 -0.010499
v 0.317791 -0.002459 -0.119012
v -0.035143 -0.002459 0.332105
v -0.288538 -0.002459 -0.164919
v -0.019150 0.285184 -0.033516
vt 0.250000 0.250000
vt 0.250000 0.490000
vt 0.042154 0.130000
vt 0.457846 0.130000
vt 0.250000 0.250000
vt 0.250000 0.490000
vt 0.042154 0.130000
vt 0.457846 0.130000
vt 0.250000 0.250000
vt 0.250000 0.490000
vt 0.042154 0.130000
vt 0.457846 0.130000
vn -0.8850 0.4644 -0.0339
vn 0.4395 0.4314 0.7879
vn 0.4722 0.5928 -0.6524
vn -0.5323 0.4265 -0.7313
vn -0.3219 0.5466 0.7730
vn 0.8484 0.5283 -0.0347
vn 0.0705 0.3591 -0.9306
vn -0.7548 0.5311 0.3848
vn 0.6333 0.5946 0.4954
usemtl bush
s off
f 4/1/1 1/2/1 3/3/1
f 4/1/2 3/3/2 2/4/2
f 4/1/3 2/4/3 1/2/3
f 8/5/4 5/6/4 7/7/4
f 8/5/5 7/7/5 6/8/5
f 8/5/6 6/8/6 5/6/6
f 12/9/7 9/10/7 11/11/7
f 12/9/8 11/11/8 10/12/8
f 12/9/9 10/12/9 9/10/9
o tree_Cone
v -0.112134 4.059215 -1.281701
v 1.166053 4.059215 0.543739
v -1.053919 4.059215 0.737962
v 0.000000 6.226537 0.000000
v 0.068238 5.387136 -0.779966
v 0.641351 5.387136 0.449079
v -0.709590 5.387136 0.330887
v -0.000000 6.953027 -0.000000
v 0.000000 2.505113 -1.928965
v 1.670533 2.505113 0.964483
v -1.670533 2.505113 0.964482
v 0.000000 5.517467 0.000000
v 0.000000 0.000000 -0.270083
v 0.233899 0.000000 0.135041
v -0.233899 0.000000 0.135041
v 0.000000 4.920313 0.000000
vt 0.730389 0.065874
vt 0.506523 0.203126
vt 0.282657 0.065874
vt 0.506523 0.453621
vt 0.506523 0.453621
vt 0.506523 0.203126
vt 0.730389 0.065874
vt 0.282657 0.065874
vt 0.282657 0.065874
vt 0.506523 0.203126
vt 0.506523 0.453621
vt 0.730389 0.065874
vt 0.320464 0.908178
vt 0.499097 0.805045
vt 0.677730 0.908179
vt 0.499096 0.598778
vn 0.7853 0.2845 -0.5499
vn 0.0836 0.2845 0.9550
vn -0.8688 0.2845 -0.4051
vn 0.8792 0.2425 -0.4100
vn -0.0846 0.2425 0.9665
vn -0.7947 0.2425 -0.5565
vn 0.8248 0.3049 -0.4762
vn -0.0000 0.3049 0.9524
vn -0.8248 0.3049 -0.4762
vn 0.8657 0.0274 -0.4998
vn -0.0000 0.0274 0.9996
vn -0.8657 0.0274 -0.4998
usemtl Tree_mat
s off
f 13/13/10 16/14/10 14/15/10
f 14/15/11 16/14/11 15/16/11
f 15/16/12 16/14/12 13/13/12
f 17/17/13 20/18/13 18/19/13
f 18/19/14 20/18/14 19/20/14
f 19/20/15 20/18/15 17/17/15
f 21/21/16 24/22/16 22/23/16
f 22/23/17 24/22/17 23/24/17
f 23/24/18 24/22/18 21/21/18
f 25/25/19 28/26/19 26/27/19
f 26/27/20 28/26/20 27/28/20
f 27/28/21 28/26/21 25/25/21
