# Blender v2.91.0 OBJ File: 'Tree.blend'
# www.blender.org
mtllib Tree.mtl
o tree_Cone
v -0.112134 4.059215 -1.281701
v 1.166053 4.059215 0.543739
v -1.053919 4.059215 0.737962
v 0.000000 6.226537 0.000000
v 0.068238 5.387136 -0.779966
v 0.641351 5.387136 0.449079
v -0.709590 5.387136 0.330887
v -0.000000 6.953027 -0.000000
v 0.000000 2.505113 -1.928965
v 1.670533 2.505113 0.964483
v -1.670533 2.505113 0.964482
v 0.000000 5.517467 0.000000
v 0.000000 0.000000 -0.270083
v 0.233899 0.000000 0.135041
v -0.233899 0.000000 0.135041
v 0.000000 4.920313 0.000000
vt 0.730389 0.065874
vt 0.506523 0.203126
vt 0.282657 0.065874
vt 0.506523 0.453621
vt 0.506523 0.453621
vt 0.506523 0.203126
vt 0.730389 0.065874
vt 0.282657 0.065874
vt 0.282657 0.065874
vt 0.506523 0.203126
vt 0.506523 0.453621
vt 0.730389 0.065874
vt 0.320464 0.908178
vt 0.499097 0.805045
vt 0.677730 0.908179
vt 0.499096 0.598778
vn 0.7853 0.2845 -0.5499
vn 0.0836 0.2845 0.9550
vn -0.8688 0.2845 -0.4051
vn 0.8792 0.2425 -0.4100
vn -0.0846 0.2425 0.9665
vn -0.7947 0.2425 -0.5565
vn 0.8248 0.3049 -0.4762
vn -0.0000 0.3049 0.9524
vn -0.8248 0.3049 -0.4762
vn 0.8657 0.0274 -0.4998
vn -0.0000 0.0274 0.9996
vn -0.8657 0.0274 -0.4998
usemtl Tree_mat
s off
f 1/1/1 4/2/1 2/3/1
f 2/3/2 4/2/2 3/4/2
f 3/4/3 4/2/3 1/1/3
f 5/5/4 8/6/4 6/7/4
f 6/7/5 8/6/5 7/8/5
f 7/8/6 8/6/6 5/5/6
f 9/9/7 12/10/7 10/11/7
f 10/11/8 12/10/8 11/12/8
f 11/12/9 12/10/9 9/9/9
f 13/13/10 16/14/10 14/15/10
f 14/15/11 16/14/11 15/16/11
f 15/16/12 16/14/12 13/13/12
