# Blender v2.91.0 OBJ File: 'Tree.blend'
# www.blender.org
mtllib bush.mtl
o bush_Cone.001
v 1.007638 0.000000 -0.332795
v 1.265956 0.000000 0.125924
v 0.754720 0.000000 0.165591
v 0.983548 0.264381 0.021021
v 1.291794 0.486084 -0.156442
v 0.975781 0.377592 0.347145
v 0.651841 0.363028 -0.124066
vt 0.457846 0.130000
vt 0.250000 0.250000
vt 0.250000 0.173250
vt 0.250000 0.490000
vt 0.316468 0.288375
vt 0.042154 0.130000
vt 0.183532 0.288375
vn 0.7089 0.6714 -0.2162
vn -0.6775 0.5663 -0.4693
vn -0.1733 0.5838 0.7932
vn 0.1411 0.4917 0.8593
vn -0.7936 0.5686 -0.2163
vn 0.4438 0.7321 -0.5168
usemtl bush
s off
f 2/1/1 4/2/1 6/3/1
f 1/4/2 4/2/2 5/5/2
f 3/6/3 4/2/3 7/7/3
f 4/2/4 2/1/4 5/5/4
f 4/2/5 3/6/5 6/3/5
f 4/2/6 1/4/6 7/7/6
